<?xml version="1.0" encoding="utf-8"?>
<svg xmlns="http://www.w3.org/2000/svg" width="360" height="360" viewBox="0 0 360 360" fill="none">
<path fill-rule="evenodd" clip-rule="evenodd" d="M185.975 1.78892C183.925 0.616642 181.604 0 179.242 0C176.881 0 174.56 0.616642 172.509 1.78892L28.0474 85.258C26.0049 86.4256 24.3067 88.1117 23.1245 90.1458C21.9423 92.1799 21.3179 94.49 21.3144 96.8427V263.781C21.3179 266.134 21.9423 268.444 23.1245 270.478C24.3067 272.512 26.0049 274.198 28.0474 275.366L86.5649 309.228V140.013C86.5969 137.752 87.1933 135.536 88.3 133.564C89.4067 131.593 90.9886 129.93 92.9018 128.725L132.508 104.17L172.113 79.9112C174.226 78.6051 176.66 77.9133 179.143 77.9133C181.627 77.9133 184.061 78.6051 186.173 79.9112L225.779 104.17L265.385 128.725C267.326 129.948 268.926 131.643 270.034 133.651C271.142 135.66 271.723 137.917 271.722 140.211V220.314C271.742 222.611 271.169 224.875 270.059 226.887C268.949 228.899 267.339 230.591 265.385 231.799L225.779 256.454L186.173 280.613C182.411 282.99 178.648 279.128 178.648 274.672V242.988C178.973 240.839 179.832 238.807 181.147 237.076C182.462 235.346 184.19 233.974 186.173 233.086L219.343 212.59C221.284 211.368 222.884 209.673 223.992 207.665C225.101 205.656 225.681 203.399 225.68 201.105V168.331C225.659 166.082 225.066 163.875 223.958 161.918C222.849 159.961 221.261 158.317 219.343 157.142L186.371 137.34C184.259 136.033 181.825 135.342 179.341 135.342C176.858 135.342 174.424 136.033 172.311 137.34L139.439 157.142C137.477 158.286 135.845 159.917 134.7 161.877C133.555 163.838 132.936 166.061 132.904 168.331V191.995V291.01V333.388C132.953 333.981 132.953 334.577 132.904 335.17L172.509 358.142C174.56 359.314 176.881 359.93 179.242 359.93C181.604 359.93 183.925 359.314 185.975 358.142L330.536 274.672C332.579 273.505 334.277 271.819 335.459 269.785C336.641 267.751 337.266 265.44 337.269 263.088V96.8427C337.266 94.49 336.641 92.1799 335.459 90.1458C334.277 88.1117 332.579 86.4256 330.536 85.258L185.975 1.78892Z" fill="#2A7DE1"/>
</svg>